<svg id="Layer_1" data-name="Layer 1" xmlns="http://www.w3.org/2000/svg" xmlns:xlink="http://www.w3.org/1999/xlink" viewBox="0 0 684 493"><defs><style>.cls-1{mask:url(#mask);}.cls-2{fill:#b99367;}.cls-3{mask:url(#mask-2);}.cls-4{fill:#e7e6e5;}.cls-5{mask:url(#mask-3);}.cls-6{fill:#8d6342;}.cls-7{filter:url(#luminosity-noclip-3);}.cls-8{filter:url(#luminosity-noclip-2);}.cls-9{filter:url(#luminosity-noclip);}</style><filter id="luminosity-noclip" x="-2130.744" y="-1095.627" width="4640" height="2902.71" filterUnits="userSpaceOnUse" color-interpolation-filters="sRGB"><feFlood flood-color="#fff" result="bg"/><feBlend in="SourceGraphic" in2="bg"/></filter><mask id="mask" x="-2130.744" y="-1095.627" width="4640" height="2902.71" maskUnits="userSpaceOnUse"><g class="cls-9"><image width="4640" height="2610" transform="translate(-2130.744 -1095.627) scale(1 1.112)" xlink:href="Artboard%201%E0%B8%9B%E0%B9%89%E0%B8%B2%E0%B8%A2%E0%B9%82%E0%B8%86%E0%B8%A9%E0%B8%93%E0%B8%B21.png"/></g></mask><filter id="luminosity-noclip-2" x="-161" y="-537" width="1698.301" height="1117" filterUnits="userSpaceOnUse" color-interpolation-filters="sRGB"><feFlood flood-color="#fff" result="bg"/><feBlend in="SourceGraphic" in2="bg"/></filter><mask id="mask-2" x="-161" y="-537" width="1698.301" height="1117" maskUnits="userSpaceOnUse"><g class="cls-8"><image width="4048" height="2699" transform="translate(-161 -537) scale(0.42 0.414)" xlink:href="Artboard%201%E0%B8%9B%E0%B9%89%E0%B8%B2%E0%B8%A2%E0%B9%82%E0%B8%86%E0%B8%A9%E0%B8%93%E0%B8%B22.png"/></g></mask><filter id="luminosity-noclip-3" x="-1673.912" y="-1061.149" width="3757" height="2505" filterUnits="userSpaceOnUse" color-interpolation-filters="sRGB"><feFlood flood-color="#fff" result="bg"/><feBlend in="SourceGraphic" in2="bg"/></filter><mask id="mask-3" x="-1673.912" y="-1061.149" width="3757" height="2505" maskUnits="userSpaceOnUse"><g class="cls-7"><image width="3757" height="2505" transform="translate(-1673.912 -1061.149)" xlink:href="Artboard%201%E0%B8%9B%E0%B9%89%E0%B8%B2%E0%B8%A2%E0%B9%82%E0%B8%86%E0%B8%A9%E0%B8%93%E0%B8%B23.png"/></g></mask></defs><g class="cls-1"><polygon points="118 290 113.219 409 126.955 409 131.206 290 118 290"/><polygon points="500 290 495.219 409 508.955 409 513.206 290 500 290"/></g><polygon class="cls-2" points="107 44 95.133 297.141 533.914 297.141 570.827 44 107 44"/><g class="cls-3"><polygon class="cls-4" points="121.038 62.692 113.219 283.243 519.822 283.243 548.047 62.692 121.038 62.692"/></g><g class="cls-5"><polygon class="cls-6" points="149 422 85 422 103.434 390 133.412 393.048 149 422"/><polygon class="cls-6" points="536 425 472 425 490.434 393 520.412 396.048 536 425"/></g></svg>