<?xml version="1.0" encoding="UTF-8"?>
<svg id="Layer_2" data-name="Layer 2" xmlns="http://www.w3.org/2000/svg" viewBox="0 0 76 70">
  <defs>
    <style>
      .cls-1 {
        fill: #fff;
      }
    </style>
  </defs>
  <path class="cls-1" d="M76,35.52c-.44,1.32-1.09,2.48-2.42,3.11-1.62,.76-3.16,.6-4.6-.47-.31-.23-.59-.52-.87-.8-9.27-9.27-18.54-18.54-27.81-27.81-1.58-1.58-2.88-1.58-4.45-.01-9.32,9.32-18.64,18.64-27.97,27.96-1.72,1.72-3.68,2.06-5.57,1-2.21-1.25-2.85-4.25-1.32-6.29,.25-.33,.54-.65,.83-.94C11.15,21.95,20.47,12.62,29.8,3.3c4.75-4.75,11.8-4.75,16.54-.02,2.5,2.49,4.99,4.99,7.49,7.49,.19,.19,.38,.36,.7,.67,0-1.52,0-2.89,0-4.25,0-1.37,.41-2.58,1.47-3.5,1.38-1.2,2.97-1.45,4.62-.74,1.8,.78,2.61,2.27,2.62,4.19,.02,4.02,.02,8.05,0,12.07,0,.69,.18,1.18,.68,1.67,3.31,3.26,6.57,6.56,9.86,9.83,.98,.97,1.88,1.95,2.22,3.33v1.48Z"/>
  <path class="cls-1" d="M45.13,70.33v-19.28h-14.12v19.28c-.28,.02-.47,.04-.66,.04-3.88,0-7.75,.02-11.63,0-4.18-.02-7.32-2.7-7.98-6.77-.07-.46-.07-.93-.07-1.4,0-5.87,0-11.75-.01-17.62,0-.93,.3-1.65,.95-2.3,8.21-8.19,16.41-16.4,24.62-24.6,1.3-1.3,2.39-1.31,3.69-.01,8.21,8.2,16.41,16.41,24.62,24.6,.65,.65,.97,1.36,.97,2.29-.02,6,0,12-.02,17.99-.02,3.84-2.72,7.03-6.49,7.71-.48,.09-.98,.11-1.47,.11-3.92,0-7.85,0-11.77,0-.17,0-.33-.02-.62-.04Z"/>
</svg>